<svg 
 xmlns="http://www.w3.org/2000/svg"
 xmlns:xlink="http://www.w3.org/1999/xlink"
 width="20px" height="23px">
<path fill-rule="evenodd"  fill="#ffffff"
 d="M17.143,22.999 L2.857,22.999 C1.281,22.999 -0.000,21.710 -0.000,20.125 L-0.000,5.031 C-0.000,4.972 0.020,4.922 0.033,4.866 C0.039,4.841 0.039,4.820 0.047,4.795 C0.091,4.670 0.167,4.565 0.267,4.483 C0.276,4.476 0.277,4.463 0.286,4.456 L1.429,3.593 L1.429,0.719 C1.429,0.604 1.461,0.500 1.509,0.404 C1.511,0.396 1.510,0.386 1.514,0.379 C1.523,0.363 1.540,0.356 1.550,0.341 C1.600,0.261 1.663,0.197 1.737,0.142 C1.763,0.123 1.784,0.106 1.811,0.092 C1.913,0.038 2.021,-0.000 2.143,-0.000 L17.857,-0.000 C17.979,-0.000 18.087,0.038 18.187,0.092 C18.214,0.106 18.236,0.125 18.261,0.142 C18.337,0.195 18.400,0.261 18.450,0.341 C18.458,0.356 18.477,0.363 18.486,0.379 C18.490,0.388 18.487,0.396 18.491,0.404 C18.538,0.500 18.571,0.604 18.571,0.719 L18.571,3.593 L19.714,4.456 C19.723,4.463 19.724,4.476 19.733,4.485 C19.833,4.567 19.909,4.671 19.953,4.797 C19.961,4.820 19.961,4.843 19.967,4.867 C19.980,4.922 20.000,4.972 20.000,5.031 L20.000,20.125 C20.000,21.710 18.718,22.999 17.143,22.999 ZM15.834,2.476 L16.521,1.437 L3.479,1.437 L4.166,2.476 C4.377,2.793 4.304,3.221 4.000,3.450 L2.857,4.312 L17.143,4.312 L16.000,3.450 C15.696,3.221 15.624,2.793 15.834,2.476 ZM18.571,5.750 L1.429,5.750 L1.429,20.125 C1.429,20.917 2.068,21.562 2.857,21.562 L17.143,21.562 C17.931,21.562 18.571,20.917 18.571,20.125 L18.571,5.750 ZM10.000,17.250 C6.849,17.250 4.286,14.671 4.286,11.500 L4.286,9.343 C4.286,8.947 4.606,8.625 5.000,8.625 C5.394,8.625 5.714,8.947 5.714,9.343 L5.714,11.500 C5.714,13.877 7.637,15.812 10.000,15.812 C12.363,15.812 14.286,13.877 14.286,11.500 L14.286,9.343 C14.286,8.947 14.606,8.625 15.000,8.625 C15.394,8.625 15.714,8.947 15.714,9.343 L15.714,11.500 C15.714,14.671 13.151,17.250 10.000,17.250 Z"/>
</svg>